<svg width="29" height="24" viewBox="0 0 29 24" fill="none" xmlns="http://www.w3.org/2000/svg">
<mask id="mask0_23_197" style="mask-type:luminance" maskUnits="userSpaceOnUse" x="0" y="0" width="29" height="24">
<path d="M0 0H28.56V24H0V0Z" fill="white"/>
</mask>
<g mask="url(#mask0_23_197)">
<mask id="mask1_23_197" style="mask-type:luminance" maskUnits="userSpaceOnUse" x="0" y="0" width="29" height="24">
<path fill-rule="evenodd" clip-rule="evenodd" d="M15.9124 9.00696C15.9347 9.11502 16.1616 9.46389 16.5135 9.62765C16.8377 9.77839 17.2803 9.75022 17.4833 9.72242C19.4009 9.45974 20.2381 7.72739 20.4047 5.08258C21.3453 5.20925 23.1357 5.11119 24.1926 3.9612C23.9734 4.57011 23.7164 4.92088 23.3873 5.2384C26.0899 4.73548 27.8236 2.41921 28.3883 0.012146C28.4949 1.19587 28.5758 2.43194 28.2866 3.37106C28.0116 4.2642 27.5625 4.90971 26.6531 5.64686C27.571 5.26549 28.1451 4.82886 28.556 4.36599C28.1111 6.21487 27.1954 8.19732 25.1353 9.17682C26.1637 9.17471 26.9509 9.01706 27.6244 8.78606C26.8972 10.1636 24.7223 11.4575 22.8699 11.6768C23.4057 11.9226 24.3172 12.0752 24.8819 12.0444C23.2508 13.5356 21.3154 13.8732 19.1274 13.2533C19.5314 13.6422 20.0569 14.0106 20.6589 14.3663C19.4317 14.405 18.3367 14.1404 17.3404 13.6492C17.4485 14.1202 17.6204 14.4846 17.8277 14.7902C17.1173 14.5793 16.6117 14.2658 16.2587 13.8758C15.1882 15.1228 18.2528 16.5983 17.9007 18.5502L15.3913 15.5976C17.0527 18.4508 17.5781 19.7404 16.632 21.1737L14.9427 16.4514C15.6641 20.8219 16.0283 22.4796 14.2859 23.9849V23.9875L14.2844 23.9862L14.2829 23.9875V23.9849C12.5407 22.4796 12.9048 20.8219 13.6264 16.4514L11.9368 21.1737C10.9908 19.7404 11.5163 18.4508 13.1777 15.5976L10.6682 18.5502C10.2011 16.7368 13.4932 14.9907 12.3103 13.8758C11.9573 14.2658 11.4516 14.5793 10.7413 14.7902C10.9484 14.4846 11.1204 14.1202 11.2286 13.6492C10.2323 14.1404 9.13729 14.405 7.90999 14.3663C8.51208 14.0106 9.03761 13.6422 9.44164 13.2533C7.25358 13.8732 5.31813 13.5356 3.68703 12.0444C4.25172 12.0752 5.16326 11.9226 5.69902 11.6768C3.84668 11.4575 1.67169 10.1636 0.944546 8.78606C1.61801 9.01706 2.40519 9.17471 3.43367 9.17682C1.37353 8.19732 0.457791 6.21487 0.0129395 4.36599C0.423903 4.82886 0.997906 5.26549 1.9159 5.64686C1.00646 4.90971 0.557412 4.2642 0.282325 3.37106C-0.00685563 2.43194 0.0740998 1.19587 0.180714 0.012146C0.745411 2.41921 2.47904 4.73548 5.18166 5.2384C4.85257 4.92088 4.59566 4.57011 4.37636 3.9612C5.43324 5.11119 7.22367 5.20925 8.16426 5.08258C8.33225 7.75103 9.18317 9.49056 11.1373 9.72917C11.3784 9.75864 11.9705 9.769 12.4101 9.53605C12.7548 9.35336 12.9914 8.93939 12.989 8.81423C12.9754 8.06455 12.4356 7.25513 11.947 6.85638C11.6974 6.65269 11.2089 6.45833 10.8254 6.83922C10.7595 6.41257 11.3562 5.96713 11.9651 6.17466C12.1375 5.58398 12.8753 5.62889 13.5032 5.78131C13.9722 5.89497 14.8582 6.44738 16.0616 6.27952C15.7962 6.70288 15.5696 6.89918 15.1564 7.04372C15.8049 7.32562 15.7807 8.36863 15.9124 9.00696Z" fill="white"/>
</mask>
<g mask="url(#mask1_23_197)">
<path d="M-0.00695801 23.9875V0.012146H28.5757V23.9875H-0.00695801Z" fill="#E77500"/>
</g>
</g>
</svg>
