<svg width="22" height="24" viewBox="0 0 22 24" fill="none" xmlns="http://www.w3.org/2000/svg">
<path d="M1.83333 24C1.34444 24 0.916667 23.82 0.55 23.46C0.183333 23.1 0 22.68 0 22.2V3.6C0 3.12 0.183333 2.7 0.55 2.34C0.916667 1.98 1.34444 1.8 1.83333 1.8H3.81944V0H5.80556V1.8H16.1944V0H18.1806V1.8H20.1667C20.6556 1.8 21.0833 1.98 21.45 2.34C21.8167 2.7 22 3.12 22 3.6V22.2C22 22.68 21.8167 23.1 21.45 23.46C21.0833 23.82 20.6556 24 20.1667 24H1.83333ZM1.83333 22.2H20.1667V9.3H1.83333V22.2ZM1.83333 7.5H20.1667V3.6H1.83333V7.5ZM11 14.4C10.6537 14.4 10.3634 14.285 10.1292 14.055C9.89491 13.825 9.77778 13.54 9.77778 13.2C9.77778 12.86 9.89491 12.575 10.1292 12.345C10.3634 12.115 10.6537 12 11 12C11.3463 12 11.6366 12.115 11.8708 12.345C12.1051 12.575 12.2222 12.86 12.2222 13.2C12.2222 13.54 12.1051 13.825 11.8708 14.055C11.6366 14.285 11.3463 14.4 11 14.4ZM6.11111 14.4C5.76481 14.4 5.47454 14.285 5.24028 14.055C5.00602 13.825 4.88889 13.54 4.88889 13.2C4.88889 12.86 5.00602 12.575 5.24028 12.345C5.47454 12.115 5.76481 12 6.11111 12C6.45741 12 6.74769 12.115 6.98194 12.345C7.2162 12.575 7.33333 12.86 7.33333 13.2C7.33333 13.54 7.2162 13.825 6.98194 14.055C6.74769 14.285 6.45741 14.4 6.11111 14.4ZM15.8889 14.4C15.5426 14.4 15.2523 14.285 15.0181 14.055C14.7838 13.825 14.6667 13.54 14.6667 13.2C14.6667 12.86 14.7838 12.575 15.0181 12.345C15.2523 12.115 15.5426 12 15.8889 12C16.2352 12 16.5255 12.115 16.7597 12.345C16.994 12.575 17.1111 12.86 17.1111 13.2C17.1111 13.54 16.994 13.825 16.7597 14.055C16.5255 14.285 16.2352 14.4 15.8889 14.4ZM11 19.2C10.6537 19.2 10.3634 19.085 10.1292 18.855C9.89491 18.625 9.77778 18.34 9.77778 18C9.77778 17.66 9.89491 17.375 10.1292 17.145C10.3634 16.915 10.6537 16.8 11 16.8C11.3463 16.8 11.6366 16.915 11.8708 17.145C12.1051 17.375 12.2222 17.66 12.2222 18C12.2222 18.34 12.1051 18.625 11.8708 18.855C11.6366 19.085 11.3463 19.2 11 19.2ZM6.11111 19.2C5.76481 19.2 5.47454 19.085 5.24028 18.855C5.00602 18.625 4.88889 18.34 4.88889 18C4.88889 17.66 5.00602 17.375 5.24028 17.145C5.47454 16.915 5.76481 16.8 6.11111 16.8C6.45741 16.8 6.74769 16.915 6.98194 17.145C7.2162 17.375 7.33333 17.66 7.33333 18C7.33333 18.34 7.2162 18.625 6.98194 18.855C6.74769 19.085 6.45741 19.2 6.11111 19.2ZM15.8889 19.2C15.5426 19.2 15.2523 19.085 15.0181 18.855C14.7838 18.625 14.6667 18.34 14.6667 18C14.6667 17.66 14.7838 17.375 15.0181 17.145C15.2523 16.915 15.5426 16.8 15.8889 16.8C16.2352 16.8 16.5255 16.915 16.7597 17.145C16.994 17.375 17.1111 17.66 17.1111 18C17.1111 18.34 16.994 18.625 16.7597 18.855C16.5255 19.085 16.2352 19.2 15.8889 19.2Z" fill="#E77500"/>
</svg>
