<svg width="48" height="48" viewBox="0 0 48 48" fill="none" xmlns="http://www.w3.org/2000/svg">
<path d="M11.494 38C9.96467 38 8.66667 37.4653 7.6 36.396C6.53333 35.3263 6 34.0277 6 32.5H2V13.5C2 12.5373 2.34267 11.7133 3.028 11.028C3.71367 10.3427 4.53767 10 5.5 10H34.3L46 21.7V32.5H42C42 34.0277 41.4647 35.3263 40.394 36.396C39.3233 37.4653 38.0233 38 36.494 38C34.9647 38 33.6667 37.4653 32.6 36.396C31.5333 35.3263 31 34.0277 31 32.5H17C17 34.0333 16.4647 35.3333 15.394 36.4C14.3233 37.4667 13.0233 38 11.494 38ZM30 20H39.7L32.7 13H30V20ZM17.5 20H27V13H17.5V20ZM5 20H14.5V13H5V20ZM11.493 35.5C12.331 35.5 13.0417 35.2107 13.625 34.632C14.2083 34.0533 14.5 33.345 14.5 32.507C14.5 31.669 14.2107 30.9583 13.632 30.375C13.0533 29.7917 12.345 29.5 11.507 29.5C10.669 29.5 9.95833 29.7893 9.375 30.368C8.79167 30.9467 8.5 31.655 8.5 32.493C8.5 33.331 8.78933 34.0417 9.368 34.625C9.94667 35.2083 10.655 35.5 11.493 35.5ZM36.493 35.5C37.331 35.5 38.0417 35.2107 38.625 34.632C39.2083 34.0533 39.5 33.345 39.5 32.507C39.5 31.669 39.2107 30.9583 38.632 30.375C38.0533 29.7917 37.345 29.5 36.507 29.5C35.669 29.5 34.9583 29.7893 34.375 30.368C33.7917 30.9467 33.5 31.655 33.5 32.493C33.5 33.331 33.7893 34.0417 34.368 34.625C34.9467 35.2083 35.655 35.5 36.493 35.5ZM5 29.5H6.85C7.41667 28.6333 8.125 28 8.975 27.6C9.825 27.2 10.6667 27 11.5 27C12.3333 27 13.175 27.2 14.025 27.6C14.875 28 15.5833 28.6333 16.15 29.5H31.85C32.4167 28.6333 33.125 28 33.975 27.6C34.825 27.2 35.6667 27 36.5 27C37.3333 27 38.175 27.2 39.025 27.6C39.875 28 40.5833 28.6333 41.15 29.5H43V23H5V29.5Z" fill="#E77500"/>
</svg>
