<svg width="48" height="48" viewBox="0 0 48 48" fill="none" xmlns="http://www.w3.org/2000/svg">
<path d="M10 40V23C10 18.2667 11.65 14.25 14.95 10.95C18.25 7.65 22.2667 6 27 6C31.7333 6 35.75 7.65 39.05 10.95C42.35 14.25 44 18.2667 44 23C44 27.7333 42.35 31.75 39.05 35.05C35.75 38.35 31.7333 40 27 40H10ZM14 36H27C30.6 36 33.6667 34.7333 36.2 32.2C38.7333 29.6667 40 26.6 40 23C40 19.4 38.7333 16.3333 36.2 13.8C33.6667 11.2667 30.6 10 27 10C23.4 10 20.3333 11.2667 17.8 13.8C15.2667 16.3333 14 19.4 14 23V36ZM27 30C28.9333 30 30.5833 29.3167 31.95 27.95C33.3167 26.5833 34 24.9333 34 23C34 21.0667 33.3167 19.4167 31.95 18.05C30.5833 16.6833 28.9333 16 27 16C25.0667 16 23.4167 16.6833 22.05 18.05C20.6833 19.4167 20 21.0667 20 23C20 24.9333 20.6833 26.5833 22.05 27.95C23.4167 29.3167 25.0667 30 27 30ZM27 26C26.1667 26 25.4583 25.7083 24.875 25.125C24.2917 24.5417 24 23.8333 24 23C24 22.1667 24.2917 21.4583 24.875 20.875C25.4583 20.2917 26.1667 20 27 20C27.8333 20 28.5417 20.2917 29.125 20.875C29.7083 21.4583 30 22.1667 30 23C30 23.8333 29.7083 24.5417 29.125 25.125C28.5417 25.7083 27.8333 26 27 26ZM4 40V30H8V40H4Z" fill="#E77500"/>
</svg>
