<svg width="215" height="70" viewBox="0 0 225 80" fill="none" xmlns="http://www.w3.org/2000/svg">
<path d="M206.074 52.1984L222.087 75.1616H218.977L203.041 52.1984H206.074ZM206.458 72.7424C206.126 73.2288 206.126 73.7024 206.458 74.1632C206.817 74.5984 207.239 74.816 207.726 74.816C207.726 74.816 207.802 74.816 207.956 74.816C208.109 74.816 208.186 74.816 208.186 74.816V75.2H199.815V74.816H200.314C201.082 74.816 201.786 74.624 202.426 74.24C203.066 73.8304 203.591 73.3696 204.001 72.8576L206.458 72.7424ZM211.604 63.1808L212.372 64.7552L204.654 75.1616H202.234L211.604 63.1808ZM217.326 72.7808L220.474 72.896C220.858 73.3824 221.383 73.8304 222.049 74.24C222.714 74.624 223.431 74.816 224.199 74.816H224.698V75.2H215.597V74.816C215.597 74.816 215.674 74.816 215.828 74.816C215.982 74.816 216.058 74.816 216.058 74.816C216.57 74.816 216.98 74.5984 217.287 74.1632C217.62 73.7024 217.633 73.2416 217.326 72.7808ZM209.454 52.16V52.544C209.454 52.544 209.377 52.544 209.223 52.544C209.069 52.544 208.993 52.544 208.993 52.544C208.506 52.544 208.097 52.7744 207.764 53.2352C207.431 53.6704 207.418 54.1184 207.726 54.5792L204.654 54.464C204.27 53.952 203.745 53.504 203.079 53.12C202.414 52.736 201.697 52.544 200.929 52.544H200.43V52.16H209.454ZM221.473 52.1984L213.294 63.5648L212.333 61.952L218.862 52.1984H221.473ZM224.045 52.16V52.544H223.508C222.74 52.544 222.023 52.736 221.357 53.12C220.717 53.504 220.205 53.9648 219.821 54.5024L217.249 54.6176C217.556 54.1312 217.543 53.6704 217.21 53.2352C216.903 52.7744 216.494 52.544 215.982 52.544C215.982 52.544 215.905 52.544 215.751 52.544C215.598 52.544 215.521 52.544 215.521 52.544V52.16H224.045Z" fill="white"/>
<path d="M179.763 52.16V66.6752C179.763 69.1584 180.39 71.1168 181.644 72.5504C182.924 73.984 184.665 74.7008 186.867 74.7008C189.299 74.7008 191.206 74.0224 192.588 72.6656C193.996 71.3088 194.7 69.4528 194.7 67.0976V52.16H196.467V67.0976C196.467 69.76 195.609 71.872 193.894 73.4336C192.204 74.9696 189.875 75.7376 186.905 75.7376C183.961 75.7376 181.619 74.9696 179.878 73.4336C178.163 71.8976 177.305 69.7984 177.305 67.136V52.16H179.763ZM177.382 52.16V54.1952H177.305C177.28 53.7344 177.088 53.3504 176.729 53.0432C176.396 52.7104 175.974 52.544 175.462 52.544C175.462 52.544 175.36 52.544 175.155 52.544C174.976 52.544 174.886 52.544 174.886 52.544V52.16H177.382ZM182.182 52.16V52.544C182.182 52.544 182.08 52.544 181.875 52.544C181.696 52.544 181.606 52.544 181.606 52.544C181.12 52.544 180.684 52.7104 180.3 53.0432C179.942 53.3504 179.763 53.7344 179.763 54.1952H179.686V52.16H182.182ZM194.777 52.16V54.1952H194.7C194.7 53.7344 194.521 53.3504 194.163 53.0432C193.804 52.7104 193.369 52.544 192.857 52.544C192.857 52.544 192.755 52.544 192.55 52.544C192.371 52.544 192.281 52.544 192.281 52.544V52.16H194.777ZM198.886 52.16V52.544C198.886 52.544 198.784 52.544 198.579 52.544C198.4 52.544 198.31 52.544 198.31 52.544C197.824 52.544 197.401 52.7104 197.043 53.0432C196.684 53.3504 196.492 53.7344 196.467 54.1952H196.39V52.16H198.886Z" fill="white"/>
<path d="M147.572 51.584L168.846 71.6288L169.23 75.7376L147.956 55.5776L147.572 51.584ZM147.649 72.8192V75.2H144.769V74.816C144.769 74.816 144.871 74.816 145.076 74.816C145.307 74.816 145.422 74.816 145.422 74.816C146.011 74.816 146.51 74.624 146.919 74.24C147.329 73.856 147.534 73.3824 147.534 72.8192H147.649ZM149.262 72.8192C149.262 73.3824 149.467 73.856 149.876 74.24C150.311 74.624 150.811 74.816 151.374 74.816C151.374 74.816 151.476 74.816 151.681 74.816C151.911 74.816 152.027 74.816 152.027 74.816V75.2H149.147V72.8192H149.262ZM147.572 51.584L149.223 53.7344L149.262 75.2H147.534V56.384C147.534 55.0784 147.47 53.952 147.342 53.0048C147.239 52.0576 147.188 51.584 147.188 51.584H147.572ZM169.23 52.16V70.8224C169.23 71.6416 169.255 72.4352 169.307 73.2032C169.358 73.9456 169.409 74.56 169.46 75.0464C169.537 75.5072 169.575 75.7376 169.575 75.7376H169.23L167.54 73.7024V52.16H169.23ZM169.115 54.5408V52.16H171.995V52.544C171.995 52.544 171.879 52.544 171.649 52.544C171.444 52.544 171.342 52.544 171.342 52.544C170.779 52.544 170.279 52.736 169.844 53.12C169.435 53.504 169.23 53.9776 169.23 54.5408H169.115ZM167.54 54.5408C167.515 53.9776 167.297 53.504 166.887 53.12C166.478 52.736 165.979 52.544 165.39 52.544C165.39 52.544 165.275 52.544 165.044 52.544C164.839 52.544 164.737 52.544 164.737 52.544V52.16H167.617V54.5408H167.54Z" fill="white"/>
<path d="M129.797 52.16V75.2H127.339V52.16H129.797ZM140.127 74.0096L140.05 75.2H129.72V74.0096H140.127ZM138.322 63.104V64.256H129.72V63.104H138.322ZM140.088 52.16V53.3504H129.72V52.16H140.088ZM142.277 69.7088L140.165 75.2H134.328L135.634 74.0096C136.914 74.0096 137.938 73.8304 138.706 73.472C139.499 73.088 140.139 72.576 140.626 71.936C141.112 71.2704 141.535 70.528 141.893 69.7088H142.277ZM138.322 64.1792V66.368H137.899V65.8688C137.899 65.4336 137.771 65.0624 137.515 64.7552C137.259 64.4224 136.863 64.256 136.325 64.256V64.1792H138.322ZM138.322 60.992V63.1808H136.325V63.104C136.863 63.104 137.259 62.9504 137.515 62.6432C137.771 62.3104 137.899 61.9264 137.899 61.4912V60.992H138.322ZM140.088 53.2352V55.8848H139.666V55.3088C139.666 54.7712 139.487 54.3104 139.128 53.9264C138.795 53.5424 138.335 53.3504 137.746 53.3504V53.2352H140.088ZM140.088 51.5456V52.544L135.711 52.16C136.504 52.16 137.349 52.096 138.245 51.968C139.141 51.8144 139.755 51.6736 140.088 51.5456ZM127.416 72.7424L127.915 75.2H124.574V74.816C124.574 74.816 124.664 74.816 124.843 74.816C125.023 74.816 125.112 74.816 125.112 74.816C125.752 74.816 126.277 74.6112 126.686 74.2016C127.096 73.792 127.314 73.3056 127.339 72.7424H127.416ZM127.416 54.5792H127.339C127.314 53.9904 127.096 53.504 126.686 53.12C126.277 52.736 125.752 52.544 125.112 52.544C125.112 52.544 125.023 52.544 124.843 52.544C124.664 52.544 124.574 52.544 124.574 52.544V52.16H127.915L127.416 54.5792Z" fill="white"/>
<path d="M109.293 75.7376L97.3888 48.5504H100.653L110.061 72.0896L109.293 75.7376ZM109.293 75.7376L108.947 73.0496L119.162 48.4352H121.466L111.059 71.7824C111.059 71.7824 110.982 71.9488 110.829 72.2816C110.701 72.5888 110.534 72.9728 110.33 73.4336C110.15 73.8944 109.984 74.3424 109.83 74.7776C109.702 75.2128 109.638 75.5328 109.638 75.7376H109.293ZM118.086 51.0848C118.368 50.3168 118.317 49.728 117.933 49.3184C117.549 48.9088 117.114 48.704 116.627 48.704H116.282V48.32H124V48.704C124 48.704 123.936 48.704 123.808 48.704C123.706 48.704 123.654 48.704 123.654 48.704C123.091 48.704 122.49 48.896 121.85 49.28C121.21 49.6384 120.685 50.2528 120.275 51.1232L118.086 51.0848ZM101.69 51.0848L98.5024 51.1232C98.1184 50.2528 97.6064 49.6384 96.9664 49.28C96.3264 48.896 95.712 48.704 95.1232 48.704C95.1232 48.704 95.072 48.704 94.9696 48.704C94.8672 48.704 94.816 48.704 94.816 48.704V48.32H103.456V48.704H103.11C102.624 48.704 102.189 48.9088 101.805 49.3184C101.446 49.728 101.408 50.3168 101.69 51.0848Z" fill="white"/>
<path d="M150.264 12.3904H153.336L159.557 31.3216L159.211 35.6608L150.264 12.3904ZM166.046 11.5456L166.353 14.656L160.401 31.3984C160.401 31.3984 160.337 31.6288 160.209 32.0896C160.081 32.5248 159.941 33.0752 159.787 33.7408C159.659 34.3808 159.582 35.0208 159.557 35.6608H159.211L158.481 32.2432L165.662 11.5456H166.046ZM166.046 11.584L173.419 30.3616L172.536 35.6608L164.741 15.7312L166.046 11.584ZM180.177 12.3904L173.803 31.3984C173.803 31.3984 173.726 31.6288 173.573 32.0896C173.445 32.5504 173.304 33.1136 173.15 33.7792C173.022 34.4192 172.945 35.0464 172.92 35.6608H172.536L172.075 31.8592L177.989 12.3904H180.177ZM177.221 14.848C177.502 14.0288 177.477 13.44 177.144 13.0816C176.837 12.7232 176.478 12.544 176.069 12.544H175.761V12.16H182.789V12.544C182.789 12.544 182.737 12.544 182.635 12.544C182.558 12.544 182.52 12.544 182.52 12.544C181.726 12.544 181.061 12.7616 180.523 13.1968C179.985 13.632 179.601 14.1824 179.371 14.848H177.221ZM154.142 14.8096L151.224 14.848C150.968 14.1824 150.584 13.632 150.072 13.1968C149.56 12.7616 148.894 12.544 148.075 12.544C148.075 12.544 148.024 12.544 147.921 12.544C147.819 12.544 147.768 12.544 147.768 12.544V12.16H155.678V12.544H155.371C154.961 12.544 154.59 12.7232 154.257 13.0816C153.925 13.4144 153.886 13.9904 154.142 14.8096Z" fill="white"/>
<path d="M134.447 12.16V35.2H131.989V12.16H134.447ZM144.776 34.0096L144.7 35.2H134.37V34.0096H144.776ZM142.972 23.104V24.256H134.37V23.104H142.972ZM144.738 12.16V13.3504H134.37V12.16H144.738ZM146.927 29.7088L144.815 35.2H138.978L140.284 34.0096C141.564 34.0096 142.588 33.8304 143.356 33.472C144.149 33.088 144.789 32.576 145.276 31.936C145.762 31.2704 146.184 30.528 146.543 29.7088H146.927ZM142.972 24.1792V26.368H142.549V25.8688C142.549 25.4336 142.421 25.0624 142.165 24.7552C141.909 24.4224 141.513 24.256 140.975 24.256V24.1792H142.972ZM142.972 20.992V23.1808H140.975V23.104C141.513 23.104 141.909 22.9504 142.165 22.6432C142.421 22.3104 142.549 21.9264 142.549 21.4912V20.992H142.972ZM144.738 13.2352V15.8848H144.316V15.3088C144.316 14.7712 144.136 14.3104 143.778 13.9264C143.445 13.5424 142.984 13.3504 142.396 13.3504V13.2352H144.738ZM144.738 11.5456V12.544L140.36 12.16C141.154 12.16 141.999 12.096 142.895 11.968C143.791 11.8144 144.405 11.6736 144.738 11.5456ZM132.066 32.7424L132.565 35.2H129.224V34.816C129.224 34.816 129.314 34.816 129.493 34.816C129.673 34.816 129.762 34.816 129.762 34.816C130.402 34.816 130.927 34.6112 131.336 34.2016C131.746 33.792 131.964 33.3056 131.989 32.7424H132.066ZM132.066 14.5792H131.989C131.964 13.9904 131.746 13.504 131.336 13.12C130.927 12.736 130.402 12.544 129.762 12.544C129.762 12.544 129.673 12.544 129.493 12.544C129.314 12.544 129.224 12.544 129.224 12.544V12.16H132.565L132.066 14.5792Z" fill="white"/>
<path d="M100.038 7.74399L122.349 31.552L122.694 35.7376L100.384 11.968L100.038 7.74399ZM100.115 32.4736V35.2H96.928V34.816C96.928 34.816 97.0432 34.816 97.2736 34.816C97.504 34.816 97.632 34.816 97.6576 34.816C98.2976 34.816 98.848 34.5856 99.3088 34.1248C99.7696 33.664 100 33.1136 100 32.4736H100.115ZM101.766 32.4736C101.766 33.1136 101.997 33.664 102.458 34.1248C102.918 34.5856 103.469 34.816 104.109 34.816C104.134 34.816 104.262 34.816 104.493 34.816C104.723 34.816 104.838 34.816 104.838 34.816V35.2H101.651V32.4736H101.766ZM100.038 7.74399L101.728 9.89439L101.766 35.2H100V12.544C100 11.2384 99.936 10.112 99.808 9.16479C99.7056 8.21759 99.6544 7.74399 99.6544 7.74399H100.038ZM122.694 8.31999V30.8224C122.694 31.6416 122.72 32.4352 122.771 33.2032C122.822 33.9456 122.874 34.56 122.925 35.0464C123.002 35.5072 123.04 35.7376 123.04 35.7376H122.694L120.966 33.7024V8.31999H122.694ZM125.766 8.31999V8.70399C125.766 8.70399 125.651 8.70399 125.421 8.70399C125.19 8.70399 125.075 8.70399 125.075 8.70399C124.435 8.70399 123.885 8.93439 123.424 9.39519C122.963 9.83039 122.72 10.3808 122.694 11.0464H122.579V8.31999H125.766ZM117.856 8.31999H121.043V11.0464H120.966C120.941 10.3808 120.698 9.83039 120.237 9.39519C119.802 8.93439 119.251 8.70399 118.586 8.70399C118.586 8.70399 118.47 8.70399 118.24 8.70399C118.01 8.70399 117.882 8.70399 117.856 8.70399V8.31999Z" fill="white"/>
<mask id="mask0_50_88" style="mask-type:luminance" maskUnits="userSpaceOnUse" x="0" y="0" width="96" height="80">
<path d="M0 0H95.2V80H0V0Z" fill="white"/>
</mask>
<g mask="url(#mask0_50_88)">
<mask id="mask1_50_88" style="mask-type:luminance" maskUnits="userSpaceOnUse" x="0" y="0" width="96" height="80">
<path fill-rule="evenodd" clip-rule="evenodd" d="M53.0413 30.0232C53.1157 30.3834 53.8722 31.5463 55.045 32.0921C56.1258 32.5946 57.6012 32.5007 58.2778 32.4081C64.6696 31.5325 67.4605 25.758 68.0158 16.9419C71.1509 17.3642 77.119 17.0373 80.642 13.204C79.9113 15.2337 79.0548 16.4029 77.9576 17.4613C86.9664 15.7849 92.7453 8.06401 94.6278 0.0404816C94.983 3.98622 95.2529 8.10647 94.2886 11.2369C93.372 14.214 91.875 16.3657 88.8437 18.8229C91.9035 17.5516 93.8172 16.0962 95.1869 14.5533C93.7037 20.7162 90.6512 27.3244 83.7845 30.5894C87.2124 30.5824 89.8365 30.0569 92.0815 29.2868C89.6575 33.8786 82.4078 38.1917 76.2331 38.9227C78.0191 39.742 81.0574 40.2506 82.9398 40.1479C77.5027 45.1187 71.0512 46.2439 63.7581 44.1778C65.1048 45.4739 66.8564 46.7021 68.8632 47.8877C64.7724 48.0165 61.1223 47.1346 57.8013 45.4973C58.1617 47.0673 58.7349 48.2819 59.4257 49.3007C57.0577 48.5978 55.3722 47.5527 54.1958 46.2527C50.6273 50.4093 60.8428 55.3276 59.6691 61.834L51.3044 51.9921C56.8425 61.5028 58.5936 65.8013 55.4402 70.5789L49.809 54.8381C52.2138 69.4065 53.4279 74.932 47.6199 79.9496V79.9584L47.6149 79.9539L47.6098 79.9584V79.9496C41.8024 74.932 43.0159 69.4065 45.4213 54.8381L39.7895 70.5789C36.6361 65.8013 38.3877 61.5028 43.9257 51.9921L35.5607 61.834C34.0036 55.7894 44.9773 49.9689 41.0344 46.2527C39.8578 47.5527 38.172 48.5978 35.8043 49.3007C36.4946 48.2819 37.0681 47.0673 37.4288 45.4973C34.1078 47.1346 30.4577 48.0165 26.3667 47.8877C28.3736 46.7021 30.1254 45.4739 31.4722 44.1778C24.1787 46.2439 17.7271 45.1187 12.2901 40.1479C14.1725 40.2506 17.2109 39.742 18.9968 38.9227C12.8223 38.1917 5.57236 33.8786 3.14854 29.2868C5.39341 30.0569 8.01734 30.5824 11.4456 30.5894C4.57848 27.3244 1.52602 20.7162 0.0431824 14.5533C1.41306 16.0962 3.3264 17.5516 6.38639 18.8229C3.35491 16.3657 1.85809 14.214 0.941133 11.2369C-0.0228012 8.10647 0.24705 3.98622 0.602429 0.0404816C2.48476 8.06401 8.26352 15.7849 17.2723 17.4613C16.1753 16.4029 15.3189 15.2337 14.5879 13.204C18.1109 17.0373 24.079 17.3642 27.2143 16.9419C27.7742 25.8368 30.6106 31.6352 37.1245 32.4306C37.9282 32.5288 39.9016 32.5633 41.3672 31.7868C42.516 31.1779 43.3048 29.798 43.2969 29.3808C43.2515 26.8818 41.452 24.1838 39.8234 22.8546C38.9913 22.1756 37.3632 21.5278 36.0848 22.7974C35.8649 21.3752 37.8539 19.8904 39.8837 20.5822C40.4583 18.6133 42.9176 18.763 45.0108 19.271C46.5742 19.6499 49.5275 21.4913 53.5389 20.9317C52.654 22.3429 51.8988 22.9973 50.5214 23.4791C52.6832 24.4187 52.6025 27.8954 53.0413 30.0232Z" fill="white"/>
</mask>
<g mask="url(#mask1_50_88)">
<path d="M-0.0230255 79.9584V0.0404816H95.2526V79.9584H-0.0230255Z" fill="#E77500"/>
</g>
</g>
</svg>
